<svg xmlns="http://www.w3.org/2000/svg" viewBox="0 0 400 300" preserveAspectRatio="xMidYMid slice">
  <!-- background -->
  <rect width="400" height="300" fill="#f6e9c8"/>
  <!-- soft circle plate -->
  <ellipse cx="200" cy="170" rx="180" ry="120" fill="#fff" opacity="0.55"/>
  <!-- bamboo steamer rim -->
  <ellipse cx="200" cy="240" rx="170" ry="38" fill="#b8956a"/>
  <ellipse cx="200" cy="228" rx="170" ry="35" fill="#d4b88a"/>
  <ellipse cx="200" cy="225" rx="160" ry="30" fill="#e6d2a8"/>
  <g stroke="#a07c54" stroke-width="1.8" opacity="0.35">
    <line x1="50" y1="232" x2="350" y2="232"/>
    <line x1="50" y1="244" x2="350" y2="244"/>
  </g>
  <!-- chives scattered -->
  <g stroke="#5d8a3a" stroke-width="3" stroke-linecap="round" opacity="0.85">
    <line x1="80" y1="120" x2="115" y2="138"/>
    <line x1="305" y1="125" x2="340" y2="108"/>
    <line x1="158" y1="100" x2="198" y2="92"/>
  </g>
  <!-- back row dumplings -->
  <g fill="#fdf6e3" stroke="#c8a878" stroke-width="2.2">
    <ellipse cx="120" cy="170" rx="44" ry="28"/>
    <ellipse cx="208" cy="160" rx="48" ry="32"/>
    <ellipse cx="295" cy="172" rx="44" ry="28"/>
  </g>
  <!-- pleats back row -->
  <g stroke="#a07c54" stroke-width="2" fill="none" stroke-linecap="round">
    <path d="M84,168 Q92,154 100,166 Q108,152 116,164 Q124,152 132,164 Q140,154 148,166"/>
    <path d="M168,158 Q176,142 184,156 Q192,140 200,154 Q208,140 216,154 Q224,140 232,156 Q240,142 248,158"/>
    <path d="M259,170 Q267,156 275,168 Q283,154 291,166 Q299,154 307,166 Q315,156 323,170"/>
  </g>
  <!-- front row dumplings -->
  <g fill="#fdf6e3" stroke="#c8a878" stroke-width="2.2">
    <ellipse cx="160" cy="208" rx="42" ry="26"/>
    <ellipse cx="250" cy="210" rx="42" ry="26"/>
  </g>
  <g stroke="#a07c54" stroke-width="2" fill="none" stroke-linecap="round">
    <path d="M126,206 Q134,194 142,204 Q150,192 158,202 Q166,192 174,202 Q182,194 190,206"/>
    <path d="M216,208 Q224,196 232,206 Q240,194 248,204 Q256,194 264,204 Q272,196 280,208"/>
  </g>
  <!-- subtle shadow under steamer -->
  <ellipse cx="200" cy="280" rx="160" ry="10" fill="#000" opacity="0.08"/>
</svg>
