<svg xmlns="http://www.w3.org/2000/svg" viewBox="0 0 400 300" preserveAspectRatio="xMidYMid slice">
  <rect width="400" height="300" fill="#efb898"/>
  <!-- dark bowl -->
  <ellipse cx="200" cy="180" rx="190" ry="118" fill="#1a1a1a"/>
  <ellipse cx="200" cy="178" rx="180" ry="108" fill="#2a2a2a"/>
  <!-- chili oil base -->
  <ellipse cx="200" cy="178" rx="170" ry="98" fill="#b85838"/>
  <ellipse cx="200" cy="178" rx="170" ry="98" fill="#c8102e" opacity="0.4"/>
  <!-- noodle nest -->
  <g stroke="#f5d68a" stroke-width="3.5" fill="none" stroke-linecap="round" opacity="0.95">
    <path d="M70,150 Q120,130 180,150 Q240,170 320,150"/>
    <path d="M75,165 Q130,145 200,165 Q260,180 325,160"/>
    <path d="M80,180 Q140,165 210,180 Q270,190 320,175"/>
    <path d="M75,195 Q130,180 200,195 Q260,205 325,190"/>
    <path d="M80,210 Q140,200 210,210 Q270,220 320,205"/>
    <path d="M85,225 Q145,215 215,225 Q275,230 315,220"/>
  </g>
  <g stroke="#e8c060" stroke-width="3" fill="none" stroke-linecap="round" opacity="0.85">
    <path d="M85,160 Q140,140 200,158 Q260,175 315,158"/>
    <path d="M90,175 Q150,160 215,175 Q265,185 310,170"/>
    <path d="M90,200 Q150,188 220,200 Q270,212 310,200"/>
  </g>
  <!-- ground pork crumbles on top -->
  <g fill="#5a2a18">
    <ellipse cx="170" cy="160" rx="6" ry="4"/>
    <ellipse cx="195" cy="155" rx="5" ry="3.5"/>
    <ellipse cx="220" cy="162" rx="6" ry="4"/>
    <ellipse cx="240" cy="170" rx="5" ry="3.5"/>
    <ellipse cx="155" cy="180" rx="6" ry="4"/>
    <ellipse cx="180" cy="185" rx="5" ry="3"/>
    <ellipse cx="210" cy="180" rx="6" ry="4"/>
    <ellipse cx="245" cy="190" rx="5" ry="3.5"/>
    <ellipse cx="135" cy="200" rx="5" ry="3"/>
    <ellipse cx="165" cy="205" rx="6" ry="4"/>
    <ellipse cx="225" cy="210" rx="5" ry="3.5"/>
  </g>
  <g fill="#7a3a22" opacity="0.7">
    <ellipse cx="178" cy="158" rx="3" ry="2"/>
    <ellipse cx="223" cy="165" rx="3" ry="2"/>
    <ellipse cx="158" cy="183" rx="3" ry="2"/>
    <ellipse cx="213" cy="183" rx="3" ry="2"/>
  </g>
  <!-- scallions -->
  <g fill="#7eb24a" stroke="#5d8a3a" stroke-width="0.8">
    <ellipse cx="120" cy="170" rx="6" ry="3"/>
    <ellipse cx="280" cy="165" rx="6" ry="3"/>
    <ellipse cx="150" cy="220" rx="5" ry="2.5"/>
    <ellipse cx="240" cy="225" rx="6" ry="3"/>
    <ellipse cx="200" cy="140" rx="5" ry="2.5"/>
    <ellipse cx="105" cy="200" rx="5" ry="2.5"/>
  </g>
  <!-- crushed peanuts -->
  <g fill="#d4a872">
    <circle cx="195" cy="175" r="2"/>
    <circle cx="225" cy="195" r="1.8"/>
    <circle cx="170" cy="195" r="2"/>
    <circle cx="250" cy="175" r="1.8"/>
    <circle cx="140" cy="190" r="1.5"/>
  </g>
  <!-- sichuan peppercorns -->
  <g fill="#7a3a22">
    <circle cx="125" cy="155" r="1.6"/>
    <circle cx="290" cy="180" r="1.6"/>
    <circle cx="160" cy="225" r="1.6"/>
  </g>
  <!-- chopsticks resting on bowl -->
  <g stroke="#7a4a2a" stroke-width="3.5" stroke-linecap="round">
    <line x1="280" y1="80" x2="370" y2="170"/>
    <line x1="290" y1="78" x2="378" y2="166"/>
  </g>
  <g stroke="#5a3a1a" stroke-width="2" stroke-linecap="round">
    <line x1="370" y1="170" x2="378" y2="178"/>
    <line x1="378" y1="166" x2="386" y2="174"/>
  </g>
</svg>
